<?xml version="1.0" encoding="utf-8"?>
<!-- Generator: Adobe Illustrator 16.0.0, SVG Export Plug-In . SVG Version: 6.00 Build 0)  -->
<!DOCTYPE svg PUBLIC "-//W3C//DTD SVG 1.1//EN" "http://www.w3.org/Graphics/SVG/1.1/DTD/svg11.dtd">
<svg version="1.1" xmlns="http://www.w3.org/2000/svg" xmlns:xlink="http://www.w3.org/1999/xlink" x="0px" y="0px" width="1000px"
	 height="792px" viewBox="0 0 1000 792" enable-background="new 0 0 1000 792" xml:space="preserve">
<g id="Layer_1">
	<g>
		<path fill-rule="evenodd" clip-rule="evenodd" fill="#5F9FB6" d="M509.271,220.745c104.373,0.092,188.076,84.035,187.984,188.525
			c-0.092,104.373-84.036,188.076-188.526,187.984c-104.372-0.092-188.076-84.036-187.983-188.525
			C320.837,304.355,404.781,220.653,509.271,220.745z M442.12,467.819c-2.804-2.488-4.695-4.094-6.506-5.784
			c-12.051-11.254-24.085-22.524-36.122-33.792c-5.09-4.765-10.929-7.66-18.072-6.649c-8.852,1.251-15.056,6.063-17.886,14.626
			c-2.851,8.628-0.514,16.227,5.939,22.31c19.027,17.937,38.162,35.761,57.379,53.493c8.263,7.625,19.083,7.882,28.323,0.945
			c2.384-1.789,4.509-3.947,6.626-6.063c55.96-55.933,111.904-111.882,167.849-167.831c1.295-1.296,2.628-2.563,3.826-3.944
			c6.573-7.576,6.798-18.798,0.575-26.674c-8.542-10.813-22.671-11.197-33.122-0.755
			c-51.729,51.685-103.429,103.397-155.104,155.135C444.43,464.23,443.436,466.025,442.12,467.819z"/>
		<path fill-rule="evenodd" clip-rule="evenodd" fill="#FEFEFE" d="M442.12,467.819c1.316-1.794,2.31-3.589,3.704-4.984
			c51.675-51.737,103.375-103.45,155.104-155.135c10.451-10.442,24.58-10.059,33.122,0.755c6.223,7.876,5.998,19.098-0.575,26.674
			c-1.198,1.382-2.531,2.648-3.826,3.944C573.704,395.022,517.76,450.972,461.8,506.904c-2.117,2.116-4.242,4.274-6.626,6.063
			c-9.24,6.937-20.06,6.68-28.323-0.945c-19.217-17.732-38.352-35.557-57.379-53.493c-6.453-6.083-8.79-13.682-5.939-22.31
			c2.83-8.563,9.034-13.375,17.886-14.626c7.144-1.011,12.982,1.885,18.072,6.649c12.037,11.268,24.071,22.538,36.122,33.792
			C437.425,463.726,439.316,465.331,442.12,467.819z M442.301,482.308c-2.207-1.89-3.236-2.708-4.195-3.602
			c-14.387-13.396-28.774-26.793-43.135-40.218c-2.219-2.075-4.494-3.982-7.611-4.488c-5.154-0.838-9.804,1.46-12.126,5.971
			c-2.396,4.656-1.625,9.637,2.6,13.627c13.687,12.926,27.485,25.733,41.239,38.588c4.869,4.55,9.605,9.253,14.636,13.616
			c5.923,5.138,11.823,4.651,17.208-1.001c2.413-2.533,4.834-5.06,7.307-7.533c54.547-54.561,109.103-109.112,163.651-163.67
			c1.294-1.295,2.691-2.529,3.767-3.992c4.955-6.739,1.782-15.591-6.288-17.856c-5.479-1.539-9.168,1.281-12.735,4.851
			c-53.472,53.515-106.977,106.995-160.439,160.519C444.776,478.522,443.768,480.32,442.301,482.308z"/>
	</g>
</g>
<g id="Layer_2">
</g>
</svg>
