<?xml version="1.0" encoding="utf-8"?>
<!-- Generator: Adobe Illustrator 16.0.0, SVG Export Plug-In . SVG Version: 6.00 Build 0)  -->
<!DOCTYPE svg PUBLIC "-//W3C//DTD SVG 1.1//EN" "http://www.w3.org/Graphics/SVG/1.1/DTD/svg11.dtd">
<svg version="1.1" id="Layer_1" xmlns="http://www.w3.org/2000/svg" xmlns:xlink="http://www.w3.org/1999/xlink" x="0px" y="0px"
	 width="1000px" height="792px" viewBox="0 0 1000 792" enable-background="new 0 0 1000 792" xml:space="preserve">
<g>
	<path fill-rule="evenodd" clip-rule="evenodd" fill="#609FB7" d="M435.998,255.798c103.568-0.743,188.431,84.7,188.367,188.325
		c-0.063,103.529-84.949,188.371-188.614,188.242c-103.486-0.129-188.312-85.032-188.115-188.738
		C247.832,340.286,332.545,255.062,435.998,255.798z"/>
	<path fill-rule="evenodd" clip-rule="evenodd" fill="#F1F3F3" d="M436.004,466.148c-16.998,0-33.996,0.126-50.992-0.045
		c-11.165-0.112-19.339-8.171-20.635-19.809c-1.036-9.303,6.447-19.484,16.178-21.873c1.595-0.392,3.297-0.482,4.949-0.483
		c33.662-0.026,67.323-0.079,100.984,0.013c11.337,0.031,19.411,7.648,21.038,19.362c1.284,9.247-5.511,19.093-15.115,22.088
		c-2.62,0.816-5.263,0.751-7.915,0.757c-16.164,0.027-32.328,0.014-48.492,0.014C436.004,466.164,436.004,466.156,436.004,466.148z"
		/>
</g>
</svg>
