<?xml version="1.0" encoding="utf-8"?>
<!-- Generator: Adobe Illustrator 16.0.0, SVG Export Plug-In . SVG Version: 6.00 Build 0)  -->
<!DOCTYPE svg PUBLIC "-//W3C//DTD SVG 1.1//EN" "http://www.w3.org/Graphics/SVG/1.1/DTD/svg11.dtd">
<svg version="1.1" id="Layer_1" xmlns="http://www.w3.org/2000/svg" xmlns:xlink="http://www.w3.org/1999/xlink" x="0px" y="0px"
	 width="1000px" height="792px" viewBox="0 0 1000 792" enable-background="new 0 0 1000 792" xml:space="preserve">
<g>
	<path fill-rule="evenodd" clip-rule="evenodd" fill="#F9ED32" stroke="#BCBEC0" stroke-miterlimit="10" d="M452.16,527.151
		c-33.303,0.288-66.59-0.579-99.624-5.302c-10.846-1.551-21.759-3.237-31.804-8.006c-4.454-2.113-8.36-5.01-8.919-10.538
		c-0.568-5.606,2.287-10.011,8.835-13.098c8.357-3.939,17.365-5.703,26.401-7.122c24.699-3.877,49.596-5.303,74.562-6.31
		c24.339-0.981,48.651-0.654,72.939,0.444c25.582,1.158,51.176,2.766,76.234,8.73c4.863,1.157,9.672,2.543,14.039,5.048
		c10.132,5.81,10.21,16.261,0.043,21.983c-8.556,4.816-18.169,6.381-27.675,7.92c-25.014,4.049-50.238,5.831-75.561,6.225
		C471.811,527.279,461.984,527.151,452.16,527.151z"/>
	<path fill-rule="evenodd" clip-rule="evenodd" fill="#F3EEEB" stroke="#BCBEC0" stroke-miterlimit="10" d="M337.439,501.302
		c76.356-12.122,152.727-12.024,229.111-0.174C545.277,514.592,366.513,514.812,337.439,501.302z"/>
</g>
</svg>
