<?xml version="1.0" encoding="utf-8"?>
<!-- Generator: Adobe Illustrator 16.0.0, SVG Export Plug-In . SVG Version: 6.00 Build 0)  -->
<!DOCTYPE svg PUBLIC "-//W3C//DTD SVG 1.1//EN" "http://www.w3.org/Graphics/SVG/1.1/DTD/svg11.dtd">
<svg version="1.1" id="Layer_1" xmlns="http://www.w3.org/2000/svg" xmlns:xlink="http://www.w3.org/1999/xlink" x="0px" y="0px"
	 width="1000px" height="792px" viewBox="0 0 1000 792" enable-background="new 0 0 1000 792" xml:space="preserve">
<g>
	<path fill-rule="evenodd" clip-rule="evenodd" fill="#FFFFFF" d="M492.149,653.939c19.988,0.035,39.977,0.178,59.962,0.02
		c4.331-0.034,6.08,0.828,6.009,5.688c-0.289,19.651-0.208,39.31-0.045,58.964c0.031,3.819-0.947,5.201-4.992,5.194
		c-61.798-0.112-123.596-0.11-185.393-0.007c-4.06,0.007-5.034-1.494-5.006-5.272c0.146-19.821,0.158-39.645-0.007-59.465
		c-0.033-3.95,1.229-5.121,5.15-5.096c20.152,0.129,40.307-0.006,60.46-0.049c2.079-0.652,3.612,0.535,4.787,1.845
		c2.428,2.705,4.626,2.133,7.327,0.376c3.289-2.139,6.691-4.327,10.977-3.783c5.746,0.189,11.481,0.404,17.201-0.202
		c4.407-0.456,8.072,1.546,11.47,3.898c2.597,1.798,4.608,2.036,6.924-0.362C488.285,654.329,489.844,652.777,492.149,653.939z"/>
	<path fill-rule="evenodd" clip-rule="evenodd" fill="#FFFFFF" d="M426.035,648.245c-22.442-0.041-44.885-0.181-67.326-0.038
		c-4.321,0.028-5.563-0.771-5.031-5.512c2.107-18.804,3.707-37.666,5.352-56.519c0.273-3.131,1.417-4.326,4.61-4.291
		c13.295,0.145,26.592,0.098,39.889,0.121c0.267,2.689-1.771,3.778-3.563,4.921c-5.342,3.403-10.349,7.253-15.28,11.21
		c-4.582,3.676-4.628,4.344-0.548,8.468c4.495,4.542,4.566,4.628,9.532,0.487c16.02-13.357,34.264-21.81,55.057-23.786
		c28.552-2.713,54.465,4.254,76.837,22.775c0.256,0.212,0.482,0.46,0.736,0.675c4.518,3.826,10.955,1.91,12.7-3.729
		c0.533-1.723-0.719-2.416-1.639-3.292c-5.442-5.188-11.576-9.468-17.867-13.539c-1.806-1.169-3.843-2.173-3.737-4.827
		c0.056-0.328,0.105-0.657,0.169-0.983c0.716-3.672-1.878-9.251,1.344-10.702c4.035-1.817,9.439-0.716,14.249-0.649
		c2.777,0.039,2.22,2.403,2.295,4.131c0.377,8.691,0.361,8.705,8.934,8.759c4.66,0.03,9.327,0.166,13.978-0.045
		c3.16-0.144,4.356,0.995,4.645,4.168c1.428,15.721,3.058,31.424,4.615,47.134c0.328,3.308,0.513,6.637,1.015,9.918
		c0.617,4.025-1,5.128-4.919,5.097c-20.137-0.163-40.274-0.079-60.412-0.068c-2.329,0.001-4.657,0.084-6.986,0.129
		c-2.209,1.165-3.751-0.24-5.413-1.352c-19.436-12.995-37.933-13.017-57.707-0.094C429.885,647.906,428.219,649.087,426.035,648.245
		z"/>
	<path fill-rule="evenodd" clip-rule="evenodd" fill="#F7EC25" d="M460.363,551.729c-26.112-0.764-52.273-0.875-78.073-5.795
		c-2.932-0.56-5.885-1.249-8.665-2.308c-4.219-1.606-8.732-3.324-8.629-9.002c0.097-5.395,4.407-7.068,8.511-8.549
		c8.201-2.959,16.836-3.985,25.421-4.918c25.689-2.793,51.485-3.712,77.3-2.915c21.281,0.656,42.587,1.507,63.557,5.784
		c3.759,0.767,7.454,1.758,10.841,3.634c2.913,1.614,5.24,3.803,5.134,7.378c-0.106,3.54-2.447,5.709-5.456,7.163
		c-7.474,3.613-15.619,4.548-23.678,5.67C504.648,550.932,482.489,551.074,460.363,551.729z"/>
	<path fill-rule="evenodd" clip-rule="evenodd" fill="#F2EA2F" d="M515.756,581.37c8.561,5.465,17.004,11.073,24.634,17.849
		c2.402,2.134,2.895,3.593,0.25,5.851c-3.03,2.588-5.448,7.174-8.737,7.822c-3.443,0.679-6.179-4.189-9.23-6.607
		c-38.194-30.256-93.235-28.582-129.535,4.223c-3.355,3.031-5.093,3.166-8.228-0.143c-8.047-8.493-8.152-8.263,0.695-15.687
		c5.633-4.726,11.927-8.475,17.921-12.671c19.161-9.848,39.424-14.667,61.042-14.047C482.72,568.48,499.609,573.405,515.756,581.37z
		"/>
	<path fill-rule="evenodd" clip-rule="evenodd" fill="#E9E73C" d="M426.035,648.245c10.734-8.945,22.951-13.815,37.057-13.08
		c12.031,0.628,22.362,5.587,31.591,13.092c1.874,3.106-2.075,3.617-2.533,5.683c-4.966,6.723-10.411,7.841-16.79,1.719
		c-1.25-1.2-3.218-1.724-5.121-1.738c-6.686-1.362-13.371-1.201-20.057,0.006c-4.036,0.59-7.49,2.597-10.421,5.177
		c-2.667,2.349-4.363,1.886-6.45-0.531c-1.483-1.718-3.336-3.114-5.023-4.654C427.735,651.947,423.903,651.28,426.035,648.245z"/>
	<path fill-rule="evenodd" clip-rule="evenodd" fill="#87B6C8" d="M514.461,696.87c-5.316-0.003-10.635-0.073-15.95,0.026
		c-2.564,0.049-3.543-0.98-3.515-3.534c0.087-7.975,0.089-15.951,0.001-23.926c-0.028-2.539,0.911-3.573,3.489-3.556
		c10.634,0.072,21.268,0.067,31.901,0c2.543-0.016,3.561,0.98,3.535,3.536c-0.081,7.975-0.106,15.952,0.015,23.925
		c0.046,3.013-1.463,3.608-4.024,3.562C524.764,696.807,519.611,696.874,514.461,696.87z"/>
	<path fill-rule="evenodd" clip-rule="evenodd" fill="#87B6C8" d="M406,665.906c5.324-0.002,10.651,0.094,15.971-0.041
		c2.813-0.072,3.85,1.054,3.816,3.812c-0.094,7.819-0.078,15.64-0.018,23.459c0.022,2.799-1.257,3.784-3.963,3.765
		c-10.315-0.075-20.631-0.072-30.946,0.004c-2.609,0.019-4.024-0.666-3.98-3.623c0.118-7.984,0.101-15.973,0.015-23.958
		c-0.028-2.649,1.173-3.479,3.632-3.439C395.683,665.968,400.842,665.909,406,665.906z"/>
	<path fill-rule="evenodd" clip-rule="evenodd" fill="#87B6C8" d="M474.148,688.367c-0.001,6.327-0.068,12.654,0.03,18.979
		c0.043,2.725-0.958,3.924-3.774,3.883c-6.991-0.103-13.984-0.07-20.977-0.023c-2.304,0.015-3.318-0.961-3.312-3.28
		c0.035-12.985,0.039-25.972,0-38.958c-0.007-2.48,1.326-3.086,3.481-3.073c6.992,0.042,13.986,0.101,20.977-0.022
		c2.989-0.052,3.641,1.431,3.604,4.016C474.091,676.047,474.15,682.207,474.148,688.367z"/>
	<path fill-rule="evenodd" clip-rule="evenodd" fill="#8EBAC4" d="M450.182,653.926c6.684-2.638,13.368-2.86,20.056-0.006
		C463.553,653.922,456.867,653.924,450.182,653.926z"/>
	<path fill-rule="evenodd" clip-rule="evenodd" fill="#F7EC1A" d="M460.186,601.771c21.132-0.444,39.31,7.031,55.387,20.403
		c3.214,2.672,4.24,4.669,0.41,7.628c-2.871,2.218-5.029,6.354-8.091,7.048c-2.972,0.672-5.351-3.761-8.145-5.759
		c-25.251-18.064-58.53-17.083-82.314,2.948c-3.969,3.343-6.038,3.088-9.425-0.553c-7.481-8.041-7.662-7.828,1.145-14.587
		C424.209,607.346,441.189,601.565,460.186,601.771z"/>
	<path fill-rule="evenodd" clip-rule="evenodd" fill="#87B6C8" d="M538.695,535.157c-52.197,8.196-104.462,8.155-156.728,0.217
		C403.478,526.403,503.724,526.148,538.695,535.157z"/>
	<path fill-rule="evenodd" clip-rule="evenodd" fill="#ECE829" d="M472.553,674.795c-1.656,1.137-3.521,2.061-4.933,3.444
		c-7.433,7.285-7.394,7.325-14.743-0.041c-4.8-4.81-4.351-6.72,2.376-8.641c5.005-1.429,9.906-0.928,14.368,2.011
		C470.421,672.095,471.355,672.579,472.553,674.795z"/>
</g>
</svg>
